<?xml version="1.0" encoding="UTF-8" standalone="no"?>
<svg width="29px" height="29px" viewBox="0 0 29 29" version="1.1" xmlns="http://www.w3.org/2000/svg" xmlns:xlink="http://www.w3.org/1999/xlink">
    <!-- Generator: Sketch 50.2 (55047) - http://www.bohemiancoding.com/sketch -->
    <title>calendar icon FINAL@1.5x</title>
    <desc>Created with Sketch.</desc>
    <defs></defs>
    <g id="Styles" stroke="none" stroke-width="1" fill="none" fill-rule="evenodd">
        <g id="Icons" transform="translate(-136.000000, -229.000000)">
            <g id="calendar-icon-FINAL" transform="translate(137.000000, 229.000000)">
                <g id="calendar-icon" transform="translate(0.193817, 0.241667)">
                    <path d="M6.1983871,0 L6.1983871,4.42741935" id="Stroke-51" stroke="#343532"></path>
                    <path d="M26.5645161,25.6837632 C26.5645161,26.6587259 25.7776796,27.45 24.8081845,27.45 L1.75633164,27.45 C0.786836577,27.45 0,26.6587259 0,25.6837632 L0,4.42268836 C0,3.44772568 0.786836577,2.65645161 1.75633164,2.65645161 L24.8081845,2.65645161 C25.7776796,2.65645161 26.5645161,3.44772568 26.5645161,4.42268836 L26.5645161,25.6837632 Z" id="Stroke-47" stroke="#1A1919"></path>
                    <path d="M0,8.85483871 L26.5645161,8.85483871" id="Stroke-49" stroke="#343532"></path>
                    <path d="M13.2822581,0 L13.2822581,4.42741935" id="Stroke-53" stroke="#343532"></path>
                    <path d="M21.2516129,0 L21.2516129,4.42741935" id="Stroke-55" stroke="#343532"></path>
                    <path d="M6.32339415,18.4670142 C7.48634009,19.648953 8.64839078,20.8318023 9.81044146,22.0137411 C9.98054133,22.1867522 10.2374817,22.1694511 10.4093721,22.0137411 C13.6833469,19.0497883 16.9564265,16.0849249 20.2295061,13.1209721 C20.638641,12.7503642 20.0370246,12.1430042 19.6296802,12.5108804 C17.2438057,14.6726082 14.8579313,16.8334254 12.4711615,18.9942427 C11.8767072,19.5323981 11.282253,20.0714642 10.6869034,20.6096197 C10.4962125,20.7826308 10.3046263,20.9556418 10.1130402,21.1286529 C9.58752111,21.6057992 10.0745439,21.0640014 10.3592374,21.3517461 C9.21419666,20.1871085 8.0682607,19.0224708 6.92322,17.8569225 C6.53557135,17.46355 5.93664076,18.0736416 6.32339415,18.4670142" id="Fill-57" fill="#343532"></path>
                </g>
            </g>
        </g>
    </g>
</svg>