<?xml version="1.0" encoding="UTF-8" standalone="no"?>
<svg width="20px" height="19px" viewBox="0 0 20 19" version="1.1" xmlns="http://www.w3.org/2000/svg" xmlns:xlink="http://www.w3.org/1999/xlink">
    <!-- Generator: Sketch 50.2 (55047) - http://www.bohemiancoding.com/sketch -->
    <title>calendar view@1.5x</title>
    <desc>Created with Sketch.</desc>
    <defs></defs>
    <g id="Styles" stroke="none" stroke-width="1" fill="none" fill-rule="evenodd">
        <g id="Icons" transform="translate(-721.000000, -237.000000)" fill="#2D2D2D" fill-rule="nonzero">
            <g id="calendar-view" transform="translate(721.000000, 237.000000)">
                <path d="M0.769230769,18.4786325 L19.2136752,18.4786325 C19.6068376,18.4786325 19.9145299,18.1709402 19.9145299,17.7777778 L19.9145299,2.13675214 C19.9145299,1.74358974 19.6068376,1.43589744 19.2136752,1.43589744 L15.7435897,1.43589744 L15.7435897,0.837606838 C15.7435897,0.444444444 15.4358974,0.136752137 15.042735,0.136752137 C14.6495726,0.136752137 14.3418803,0.444444444 14.3418803,0.837606838 L14.3418803,1.43589744 L5.76068376,1.43589744 L5.76068376,0.837606838 C5.76068376,0.444444444 5.45299145,0.136752137 5.05982906,0.136752137 C4.66666667,0.136752137 4.35897436,0.444444444 4.35897436,0.837606838 L4.35897436,1.43589744 L0.769230769,1.43589744 C0.376068376,1.43589744 0.0683760684,1.74358974 0.0683760684,2.13675214 L0.0683760684,17.7948718 C0.0683760684,18.1709402 0.393162393,18.4786325 0.769230769,18.4786325 Z M1.47008547,2.83760684 L4.35897436,2.83760684 L4.35897436,3.21367521 C4.35897436,3.60683761 4.66666667,3.91452991 5.05982906,3.91452991 C5.45299145,3.91452991 5.76068376,3.60683761 5.76068376,3.21367521 L5.76068376,2.83760684 L14.3418803,2.83760684 L14.3418803,3.21367521 C14.3418803,3.60683761 14.6495726,3.91452991 15.042735,3.91452991 C15.4358974,3.91452991 15.7435897,3.60683761 15.7435897,3.21367521 L15.7435897,2.83760684 L18.5299145,2.83760684 L18.5299145,4.64957265 L1.47008547,4.64957265 L1.47008547,2.83760684 Z M1.47008547,6.05128205 L18.5128205,6.05128205 L18.5128205,17.0940171 L1.47008547,17.0940171 L1.47008547,6.05128205 Z" id="Shape"></path>
                <path d="M15.042735,9.26495726 L4.95726496,9.26495726 C4.56410256,9.26495726 4.25641026,9.57264957 4.25641026,9.96581197 C4.25641026,10.3589744 4.56410256,10.6666667 4.95726496,10.6666667 L15.042735,10.6666667 C15.4358974,10.6666667 15.7435897,10.3589744 15.7435897,9.96581197 C15.7435897,9.57264957 15.4358974,9.26495726 15.042735,9.26495726 Z" id="Shape"></path>
                <path d="M10,12.6495726 L4.95726496,12.6495726 C4.56410256,12.6495726 4.25641026,12.957265 4.25641026,13.3504274 C4.25641026,13.7435897 4.56410256,14.0512821 4.95726496,14.0512821 L10,14.0512821 C10.3931624,14.0512821 10.7008547,13.7435897 10.7008547,13.3504274 C10.7008547,12.957265 10.3931624,12.6495726 10,12.6495726 Z" id="Shape"></path>
            </g>
        </g>
    </g>
</svg>