<?xml version="1.0" encoding="UTF-8"?>
<svg width="45px" height="45px" viewBox="0 0 45 45" version="1.1" xmlns="http://www.w3.org/2000/svg" xmlns:xlink="http://www.w3.org/1999/xlink">
    <!-- Generator: Sketch 51.3 (57544) - http://www.bohemiancoding.com/sketch -->
    <title>calendar nav activeSVG</title>
    <desc>Created with Sketch.</desc>
    <defs></defs>
    <g id="calendar-nav-active" stroke="none" stroke-width="1" fill="none" fill-rule="evenodd">
        <g id="caldendar-active" transform="translate(9.000000, 8.000000)" stroke="#2D2D2D">
            <path d="M27.4445565,26.656754 C27.4445565,27.6583669 26.6316532,28.4712702 25.6300403,28.4712702 L1.81451613,28.4712702 C0.812903226,28.4712702 0,27.6583669 0,26.656754 L0,4.81451613 C0,3.81290323 0.812903226,3 1.81451613,3 L25.6300403,3 C26.6316532,3 27.4445565,3.81290323 27.4445565,4.81451613 L27.4445565,26.656754 Z" id="stroke-black-1.25-fill-99F3E4" stroke-width="1.25" fill="#99F3E4"></path>
            <path d="M27.4445565,9.50133571 C27.4445565,9.7765984 26.6316532,10 25.6300403,10 L1.81451613,10 C0.812903226,10 0,9.7765984 0,9.50133571 L0,3.49866429 C0,3.2234016 0.812903226,3 1.81451613,3 L25.6300403,3 C26.6316532,3 27.4445565,3.2234016 27.4445565,3.49866429 L27.4445565,9.50133571 Z" id="stroke-black-1.25-fill-2EA57F" stroke-width="1.25" fill="#2EA57F"></path>
            <path d="M6.35080645,0.750302419 L6.35080645,5.58870968" id="stroke-black-1.25" stroke-width="1.25"></path>
            <path d="M0,9.82288306 L27.4445565,9.82288306" id="stroke-black-1.25" stroke-width="1.25"></path>
            <path d="M13.608871,0.750302419 L13.608871,5.58870968" id="stroke-black-1.25" stroke-width="1.25"></path>
            <path d="M21.7741935,0.750302419 L21.7741935,5.58870968" id="stroke-black-1.25" stroke-width="1.25"></path>
            <path d="M10.6134351,18.362451 C11.463504,19.2118655 12.3129185,20.0619345 13.1623331,20.911349 C13.2866696,21.0356855 13.4744831,21.0232518 13.6001284,20.911349 C15.9932786,18.7812686 18.3857744,16.6505339 20.7782701,14.5204535 C21.0773321,14.2541117 20.6375736,13.8176252 20.3398204,14.0820038 C18.5958376,15.6355555 16.8518547,17.1884528 15.1072175,18.7413501 C14.6726942,19.128102 14.2381709,19.5155083 13.8029932,19.9022602 C13.6636054,20.0265967 13.5235633,20.1509332 13.3835211,20.2752697 C12.9993868,20.6181766 13.3553818,20.2288071 13.5634818,20.4355983 C12.726501,19.5986174 11.8888657,18.7616366 11.0518848,17.9240013 C10.7685285,17.6412994 10.3307332,18.0797491 10.6134351,18.362451" id="stroke-black-.5-black-fill" stroke-width="0.5" fill="#2D2D2D"></path>
        </g>
    </g>
</svg>