<?xml version="1.0" encoding="UTF-8" standalone="no"?>
<svg width="18px" height="18px" viewBox="0 0 18 18" version="1.1" xmlns="http://www.w3.org/2000/svg" xmlns:xlink="http://www.w3.org/1999/xlink">
    <!-- Generator: Sketch 50.2 (55047) - http://www.bohemiancoding.com/sketch -->
    <title>close@1.5x</title>
    <desc>Created with Sketch.</desc>
    <defs></defs>
    <g id="Styles" stroke="none" stroke-width="1" fill="none" fill-rule="evenodd">
        <g id="Icons" transform="translate(-919.000000, -237.000000)" fill="#2D2D2D" fill-rule="nonzero">
            <g id="close" transform="translate(928.000000, 246.000000) rotate(-315.000000) translate(-928.000000, -246.000000) translate(916.000000, 234.000000)">
                <path d="M0.83925,12.63075 C0.375,12.63075 0.006,12.24975 0.006,11.7855 C0.006,11.32125 0.375,10.95225 0.83925,10.95225 L10.9455,10.95225 L10.9455,0.84525 C10.94625,0.381 11.32725,0 11.7915,0 C12.25575,0 12.62475,0.381 12.62475,0.84525 L12.62475,10.95225 L22.731,10.95225 C23.19525,10.95225 23.57625,11.32125 23.57625,11.7855 C23.57625,12.24975 23.19525,12.63075 22.731,12.63075 L12.62475,12.63075 L12.62475,22.73775 C12.62475,23.202 12.25575,23.583 11.7915,23.583 C11.32725,23.583 10.94625,23.202 10.94625,22.73775 L10.94625,12.63075 L0.83925,12.63075 Z" id="Shape"></path>
            </g>
        </g>
    </g>
</svg>